<svg width="14" height="16" viewBox="0 0 14 16" fill="none" xmlns="http://www.w3.org/2000/svg">
<path d="M12.6056 4.91721L8.21813 1.07083C7.81593 0.71109 7.29525 0.512207 6.75564 0.512207C6.21602 0.512207 5.69534 0.71109 5.29314 1.07083L0.905636 4.91721C0.673368 5.12494 0.488019 5.37976 0.361931 5.66472C0.235843 5.94968 0.171909 6.25823 0.174386 6.56983V12.961C0.174386 13.5428 0.405512 14.1008 0.81692 14.5122C1.22833 14.9236 1.78632 15.1547 2.36814 15.1547H11.1431C11.725 15.1547 12.2829 14.9236 12.6944 14.5122C13.1058 14.1008 13.3369 13.5428 13.3369 12.961V6.56252C13.3383 6.25215 13.2739 5.94501 13.1478 5.66139C13.0218 5.37776 12.837 5.12412 12.6056 4.91721ZM8.21813 13.6922H5.29314V10.036C5.29314 9.84202 5.37018 9.65602 5.50731 9.51888C5.64445 9.38175 5.83045 9.30471 6.02439 9.30471H7.48689C7.68082 9.30471 7.86682 9.38175 8.00396 9.51888C8.14109 9.65602 8.21813 9.84202 8.21813 10.036V13.6922ZM11.8744 12.961C11.8744 13.1549 11.7973 13.3409 11.6602 13.478C11.5231 13.6152 11.3371 13.6922 11.1431 13.6922H9.68064V10.036C9.68064 9.45414 9.44951 8.89615 9.0381 8.48474C8.62669 8.07333 8.0687 7.84221 7.48689 7.84221H6.02439C5.44257 7.84221 4.88458 8.07333 4.47317 8.48474C4.06176 8.89615 3.83064 9.45414 3.83064 10.036V13.6922H2.36814C2.1742 13.6922 1.9882 13.6152 1.85106 13.478C1.71393 13.3409 1.63689 13.1549 1.63689 12.961V6.56252C1.63702 6.45869 1.65926 6.35608 1.70213 6.26152C1.74499 6.16696 1.80751 6.08261 1.88551 6.01408L6.27301 2.17502C6.40646 2.05779 6.57801 1.99313 6.75564 1.99313C6.93326 1.99313 7.10482 2.05779 7.23826 2.17502L11.6258 6.01408C11.7038 6.08261 11.7663 6.16696 11.8091 6.26152C11.852 6.35608 11.8743 6.45869 11.8744 6.56252V12.961Z" fill="#A4B4CB"/>
</svg>
