<svg width="14" height="16" viewBox="0 0 14 16" fill="none" xmlns="http://www.w3.org/2000/svg">
<path d="M12.6252 4.86765L8.23767 1.02127C7.83546 0.66153 7.31478 0.462646 6.77517 0.462646C6.23555 0.462646 5.71487 0.66153 5.31267 1.02127L0.925167 4.86765C0.692899 5.07538 0.50755 5.3302 0.381462 5.61516C0.255374 5.90012 0.19144 6.20867 0.193917 6.52027V12.9114C0.193917 13.4932 0.425044 14.0512 0.836452 14.4626C1.24786 14.874 1.80585 15.1051 2.38767 15.1051H11.1627C11.7445 15.1051 12.3025 14.874 12.7139 14.4626C13.1253 14.0512 13.3564 13.4932 13.3564 12.9114V6.51296C13.3579 6.20259 13.2934 5.89545 13.1674 5.61183C13.0413 5.3282 12.8565 5.07456 12.6252 4.86765ZM8.23767 13.6426H5.31267V9.9864C5.31267 9.79246 5.38971 9.60646 5.52685 9.46932C5.66398 9.33219 5.84998 9.25515 6.04392 9.25515H7.50642C7.70036 9.25515 7.88635 9.33219 8.02349 9.46932C8.16062 9.60646 8.23767 9.79246 8.23767 9.9864V13.6426ZM11.8939 12.9114C11.8939 13.1053 11.8169 13.2913 11.6797 13.4285C11.5426 13.5656 11.3566 13.6426 11.1627 13.6426H9.70017V9.9864C9.70017 9.40458 9.46904 8.84659 9.05763 8.43518C8.64622 8.02377 8.08824 7.79265 7.50642 7.79265H6.04392C5.4621 7.79265 4.90411 8.02377 4.4927 8.43518C4.08129 8.84659 3.85017 9.40458 3.85017 9.9864V13.6426H2.38767C2.19373 13.6426 2.00773 13.5656 1.8706 13.4285C1.73346 13.2913 1.65642 13.1053 1.65642 12.9114V6.51296C1.65655 6.40913 1.67879 6.30652 1.72166 6.21196C1.76453 6.1174 1.82704 6.03305 1.90504 5.96452L6.29254 2.12546C6.42599 2.00823 6.59754 1.94357 6.77517 1.94357C6.95279 1.94357 7.12435 2.00823 7.25779 2.12546L11.6453 5.96452C11.7233 6.03305 11.7858 6.1174 11.8287 6.21196C11.8715 6.30652 11.8938 6.40913 11.8939 6.51296V12.9114Z" fill="#0177FD"/>
</svg>
